# Blender 4.5.3 LTS
# www.blender.org
o Cube
v 0.277778 0.652778 0.652778
v 0.555556 0.555556 0.555556
v 0.555556 -0.555556 0.555556
v -0.555556 0.555556 0.555556
v -0.555556 -0.555556 0.555556
v -0.750000 -0.750000 0.000000
v 0.000000 1.875000 0.675000
v -0.750000 0.000000 0.750000
v 0.750000 0.000000 0.750000
v 0.000000 0.750000 0.750000
v 0.750000 0.750000 0.000000
v 0.000000 -0.750000 0.750000
v -0.750000 0.750000 0.000000
v 0.750000 -0.750000 0.000000
v 0.000000 1.000000 0.000000
v 0.000000 0.000000 1.000000
v -1.000000 0.000000 0.000000
v 0.000000 -1.000000 0.000000
v 1.000000 0.000000 0.000000
v 0.391514 0.763889 0.326389
v 0.375000 0.875000 0.000000
v -0.391514 0.763889 0.326389
v -0.277778 0.652778 0.652778
v -0.375000 0.875000 0.000000
v 0.277778 0.652778 -0.652778
v 0.555556 0.555556 -0.555556
v 0.555556 -0.555556 -0.555556
v -0.555556 0.555556 -0.555556
v -0.555556 -0.555556 -0.555556
v 0.000000 1.875000 -0.675000
v -0.750000 0.000000 -0.750000
v 0.750000 0.000000 -0.750000
v 0.000000 0.750000 -0.750000
v 0.000000 -0.750000 -0.750000
v 0.000000 0.000000 -1.000000
v 0.391514 0.763889 -0.326389
v -0.391514 0.763889 -0.326389
v -0.277778 0.652778 -0.652778
vn 0.4048 -0.8675 0.2892
vn 0.4274 0.7999 0.4213
vn -0.4048 -0.2892 0.8675
vn 0.4048 -0.2892 0.8675
vn -0.8675 -0.2892 0.4048
vn -0.4284 0.4284 0.7956
vn -0.8675 0.4048 0.2892
vn 0.8675 0.2892 0.4048
vn 0.8675 -0.2892 0.4048
vn -0.2892 -0.8675 0.4048
vn 0.3023 0.9069 0.2934
vn -0.4130 0.8086 0.4192
vn -0.7169 0.4258 -0.5520
vn -0.7329 0.0453 0.6788
vn 0.4048 0.2892 0.8675
vn 0.6338 0.7414 0.2203
vn 0.2892 -0.8675 -0.4048
vn 0.7329 0.0453 -0.6788
vn -0.4048 -0.2892 -0.8675
vn 0.2892 -0.4048 -0.8675
vn -0.8675 -0.4048 -0.2892
vn -0.4284 0.4284 -0.7956
vn -0.8675 0.4048 -0.2892
vn 0.8675 0.4048 -0.2892
vn 0.8675 -0.2892 -0.4048
vn -0.4048 -0.8675 -0.2892
vn 0.3023 0.9069 -0.2934
vn -0.4200 0.8007 -0.4272
vn -0.3023 0.9069 -0.2934
vn -0.7329 0.0453 -0.6788
vn 0.4048 0.2892 -0.8675
vn 0.4130 0.8086 -0.4192
vn 0.2892 -0.8675 0.4048
vn 0.7329 0.0453 0.6788
vn -0.2892 -0.4048 0.8675
vn 0.2892 -0.4048 0.8675
vn -0.8675 -0.4048 0.2892
vn -0.3015 0.3015 0.9045
vn -0.8675 0.2892 0.4048
vn 0.8675 0.4048 0.2892
vn 0.8675 -0.4048 0.2892
vn -0.4048 -0.8675 0.2892
vn 0.7169 0.4258 -0.5520
vn -0.3023 0.9069 0.2934
vn -0.4284 0.7956 0.4284
vn -0.4274 0.7999 0.4213
vn 0.2892 0.4048 0.8675
vn -0.6755 0.6755 0.2955
vn 0.2892 0.8675 0.4048
vn 0.4048 -0.8675 -0.2892
vn 0.4274 0.7999 -0.4213
vn -0.2892 -0.4048 -0.8675
vn 0.4048 -0.2892 -0.8675
vn -0.8675 -0.2892 -0.4048
vn -0.3015 0.3015 -0.9045
vn -0.8675 0.2892 -0.4048
vn 0.8675 0.2892 -0.4048
vn 0.8675 -0.4048 -0.2892
vn -0.2892 -0.8675 -0.4048
vn 0.7169 0.4258 0.5520
vn -0.4274 0.7999 -0.4213
vn -0.7169 0.4258 0.5520
vn 0.2892 0.4048 -0.8675
vn 0.4284 0.7956 -0.4284
vt 0.000000 0.000000
vt 0.500000 1.000000
vt 0.000000 1.000000
vt 0.500000 0.000000
vt 0.500000 0.500000
vt 0.517812 0.997813
vt 0.949320 0.507812
vt 0.949320 0.997813
vt 0.949426 0.531250
vt 0.531250 0.031250
vt 0.949426 0.031250
vt 0.000000 0.500000
vt 0.000000 -0.005179
vt 0.500000 0.994821
vt 0.000000 0.994821
vt 0.517812 0.507812
vt 0.500000 -0.005179
vt 0.531250 0.531250
s 0
f 18/1/1 3/2/1 12/3/1
f 20/1/2 10/2/2 1/3/2
f 16/4/3 5/3/3 12/1/3
f 3/1/4 16/2/4 12/3/4
f 5/1/5 17/2/5 6/3/5
f 10/4/6 23/5/6 8/3/6
f 4/4/7 17/3/7 8/1/7
f 2/6/8 19/7/8 11/8/8
f 19/9/9 3/10/9 14/11/9
f 18/1/10 5/2/10 6/3/10
f 15/4/11 20/3/11 21/1/11
f 13/4/12 23/3/12 22/12/12
f 15/13/13 22/14/13 7/15/13
f 22/4/14 10/3/14 7/1/14
f 2/4/15 10/2/15 16/3/15
f 20/5/16 2/3/16 21/4/16
f 18/1/17 27/2/17 14/4/17
f 36/1/18 33/2/18 30/4/18
f 29/3/19 35/4/19 34/1/19
f 27/1/20 35/2/20 32/4/20
f 29/1/21 17/2/21 31/4/21
f 31/3/22 38/5/22 33/4/22
f 17/3/23 28/4/23 31/1/23
f 26/6/24 19/7/24 32/16/24
f 27/10/25 19/9/25 14/11/25
f 18/1/26 29/2/26 34/4/26
f 36/3/27 15/4/27 21/1/27
f 37/12/28 28/2/28 13/4/28
f 15/13/29 37/14/29 24/17/29
f 33/3/30 37/4/30 30/1/30
f 35/3/31 25/5/31 26/4/31
f 36/5/32 11/1/32 25/2/32
f 18/1/33 14/4/33 3/2/33
f 20/1/34 7/4/34 10/2/34
f 16/4/35 8/2/35 5/3/35
f 3/1/36 9/4/36 16/2/36
f 5/1/37 8/4/37 17/2/37
f 8/3/38 16/1/38 10/4/38
f 23/5/6 4/2/6 8/3/6
f 4/4/39 13/2/39 17/3/39
f 2/6/40 9/16/40 19/7/40
f 19/9/41 9/18/41 3/10/41
f 18/1/42 12/4/42 5/2/42
f 15/4/43 7/2/43 20/3/43
f 22/12/44 24/1/44 13/4/44
f 13/4/45 4/2/45 23/3/45
f 15/13/44 24/17/44 22/14/44
f 22/4/46 23/2/46 10/3/46
f 16/3/47 9/1/47 2/4/47
f 2/4/48 1/5/48 10/2/48
f 20/5/2 1/2/2 2/3/2
f 2/3/49 11/1/49 21/4/49
f 18/1/50 34/3/50 27/2/50
f 36/1/51 25/3/51 33/2/51
f 29/3/52 31/2/52 35/4/52
f 27/1/53 34/3/53 35/2/53
f 29/1/54 6/3/54 17/2/54
f 33/4/55 35/1/55 31/3/55
f 31/3/22 28/2/22 38/5/22
f 17/3/56 13/2/56 28/4/56
f 26/6/57 11/8/57 19/7/57
f 27/10/58 32/18/58 19/9/58
f 18/1/59 6/3/59 29/2/59
f 36/3/60 30/2/60 15/4/60
f 13/4/29 24/1/29 37/12/29
f 37/12/61 38/3/61 28/2/61
f 15/13/62 30/15/62 37/14/62
f 33/3/61 38/2/61 37/4/61
f 26/4/63 32/1/63 35/3/63
f 35/3/31 33/2/31 25/5/31
f 36/5/27 21/4/27 11/1/27
f 11/1/64 26/3/64 25/2/64
